<svg width="24" height="24" viewBox="0 0 24 24" fill="none" xmlns="http://www.w3.org/2000/svg">
  <path d="M5 12C5 9.79 6.79 8 9 8C11.21 8 13 12 15 12C16.79 12 18 10.79 18 9C18 7.21 16.79 6 15 6C13.21 6 11.9 7.21 11 8" stroke="currentColor" stroke-width="1.8" stroke-linecap="round" stroke-linejoin="round"/>
  <path d="M19 12C19 14.21 17.21 16 15 16C12.79 16 11 12 9 12C7.21 12 6 13.21 6 15C6 16.79 7.21 18 9 18C10.79 18 12.1 16.79 13 15" stroke="currentColor" stroke-width="1.8" stroke-linecap="round" stroke-linejoin="round"/>
</svg>
